<?xml version="1.0" encoding="utf-8"?>
<!-- Generator: Adobe Illustrator 25.2.1, SVG Export Plug-In . SVG Version: 6.00 Build 0)  -->
<svg version="1.1" id="Layer_1" xmlns="http://www.w3.org/2000/svg" xmlns:xlink="http://www.w3.org/1999/xlink" x="0px" y="0px"
	 viewBox="0 0 100 100" style="enable-background:new 0 0 100 100;" xml:space="preserve">
<style type="text/css">
	.st0{fill:#303841;}
</style>
<path id="Icon_awesome-credit-card" class="st0" d="M4.2,51v27.5c0,4.1,3.4,7.5,7.5,7.5h74.9c4.1,0,7.5-3.4,7.5-7.5V51H4.2z
	 M29.1,74.1c0,1-0.8,1.9-1.9,1.9H16c-1,0-1.9-0.8-1.9-1.9v-6.2c0-1,0.8-1.9,1.9-1.9h11.2c1,0,1.9,0.8,1.9,1.9V74.1z M59.1,74.1
	c0,1-0.8,1.9-1.9,1.9H36c-1,0-1.9-0.8-1.9-1.9v-6.2c0-1,0.8-1.9,1.9-1.9h21.2c1,0,1.9,0.8,1.9,1.9V74.1z M86.5,16.1H11.7
	c-4.1,0-7.5,3.4-7.5,7.5V31H94v-7.5C94,19.4,90.7,16.1,86.5,16.1z"/>
</svg>
