<svg xmlns="http://www.w3.org/2000/svg" width="100" height="118.126" viewBox="0 0 100 118.126">
  <path id="Icon_awesome-paypal" data-name="Icon awesome-paypal" d="M29,71.5c-.912,5-4.532,28.314-5.6,34.9-.078.469-.26.651-.781.651H3.188a3.165,3.165,0,0,1-3.152-3.621L15.3,6.566a5.29,5.29,0,0,1,5.21-4.4c39.671,0,43-.964,53.137,2.969C89.3,11.2,90.734,25.842,85.108,41.679,79.508,57.984,66.223,64.991,48.615,65.2c-11.3.182-18.1-1.823-19.614,6.3ZM93,34.021c-.469-.339-.651-.469-.781.339a60.964,60.964,0,0,1-2.292,8.752c-10.393,29.642-39.2,27.063-53.267,27.063a2.621,2.621,0,0,0-2.839,2.448c-5.887,36.571-7.059,44.2-7.059,44.2a2.774,2.774,0,0,0,2.761,3.36h16.54a4.672,4.672,0,0,0,4.532-3.881c.182-1.407-.287,1.589,3.751-23.781,1.2-5.73,3.725-5.131,7.632-5.131,18.494,0,32.924-7.5,37.222-29.251,1.693-9.065,1.2-18.6-6.2-24.12Z" transform="translate(-0.006 -2.06)" fill="#f6c90e"/>
</svg>
