<svg xmlns="http://www.w3.org/2000/svg" width="60.605" height="48.484" viewBox="0 0 60.605 48.484">
  <path id="Icon_awesome-business-time" data-name="Icon awesome-business-time" d="M46.969,21.212A13.636,13.636,0,1,0,60.605,34.848,13.629,13.629,0,0,0,46.969,21.212ZM53.03,35.444a.922.922,0,0,1-.92.92H46.374a.922.922,0,0,1-.919-.92V28.193a.922.922,0,0,1,.919-.919h1.19a.922.922,0,0,1,.919.919v5.14H52.11a.922.922,0,0,1,.92.919ZM46.969,18.182c.511,0,1.015.031,1.515.077V13.636a4.66,4.66,0,0,0-4.545-4.545H36.363V4.545A4.66,4.66,0,0,0,31.818,0H16.666a4.66,4.66,0,0,0-4.545,4.545V9.091H4.545A4.66,4.66,0,0,0,0,13.636v7.576H37.416A16.565,16.565,0,0,1,46.969,18.182ZM30.3,9.091H18.182V6.061H30.3ZM30.948,30.3H19.7a1.515,1.515,0,0,1-1.515-1.515V24.242H0V37.878a4.66,4.66,0,0,0,4.545,4.545h27.6A16.443,16.443,0,0,1,30.948,30.3Z" fill="#fff"/>
</svg>
