<svg xmlns="http://www.w3.org/2000/svg" width="54.23" height="57.84" viewBox="0 0 54.23 57.84">
  <path id="Icon_awesome-shield-alt" data-name="Icon awesome-shield-alt" d="M52.022,9.455,30.33.417a5.44,5.44,0,0,0-4.169,0L4.469,9.455a5.417,5.417,0,0,0-3.344,5c0,22.426,12.936,37.927,25.025,42.966a5.44,5.44,0,0,0,4.169,0C40,53.393,55.355,39.463,55.355,14.46A5.424,5.424,0,0,0,52.022,9.455ZM28.251,50.422,28.24,7.376l19.873,8.281c-.373,17.105-9.276,29.5-19.862,34.764Z" transform="translate(-1.125 -0.002)" fill="#f6c92e"/>
</svg>
