<svg xmlns="http://www.w3.org/2000/svg" width="65.284" height="65.284" viewBox="0 0 65.284 65.284">
  <path id="Icon_ionic-ios-help-buoy" data-name="Icon ionic-ios-help-buoy" d="M36.017,3.375A32.642,32.642,0,1,0,68.659,36.017,32.637,32.637,0,0,0,36.017,3.375Zm8.568,5.712A28.319,28.319,0,0,1,62.946,27.448l-13.936.942a15.068,15.068,0,0,0-5.32-5.336ZM16.039,16.039A28.046,28.046,0,0,1,27.448,9.087l.895,13.967a15.415,15.415,0,0,0-5.32,5.32L9.072,27.448A28.357,28.357,0,0,1,16.039,16.039ZM27.448,62.946A28.319,28.319,0,0,1,9.087,44.585l13.967-.895a15.194,15.194,0,0,0,5.3,5.3Zm8.568-16.258A10.671,10.671,0,1,1,46.688,36.017,10.683,10.683,0,0,1,36.017,46.688Zm19.977,9.306a28.15,28.15,0,0,1-11.409,6.952L43.659,49a15.116,15.116,0,0,0,5.351-5.367l13.936.942A28.1,28.1,0,0,1,55.994,55.994Z" transform="translate(-3.375 -3.375)" fill="#f6c92e"/>
</svg>
