<?xml version="1.0" encoding="utf-8"?>
<!-- Generator: Adobe Illustrator 25.2.1, SVG Export Plug-In . SVG Version: 6.00 Build 0)  -->
<svg version="1.1" id="Capa_1" xmlns="http://www.w3.org/2000/svg" xmlns:xlink="http://www.w3.org/1999/xlink" x="0px" y="0px"
	 viewBox="0 0 100 100" style="enable-background:new 0 0 100 100;" xml:space="preserve">
<style type="text/css">
	.st0{fill:#F6C92E;}
</style>
<g>
	<path class="st0" d="M54.2,8.3L9.3,1.5C7.2,1.1,5.1,1.7,3.5,3C1.9,4.4,1,6.4,1,8.5v86c0,2.2,1.8,4.1,4.1,4.1h13.3V77.2
		c0-4,3.2-7.1,7.1-7.1h10.2c4,0,7.1,3.2,7.1,7.1v21.4h17.4V15.3C60.2,11.8,57.7,8.8,54.2,8.3z M23.5,60.9h-6.1
		c-1.7,0-3.1-1.4-3.1-3.1s1.4-3.1,3.1-3.1h6.1c1.7,0,3.1,1.4,3.1,3.1S25.1,60.9,23.5,60.9z M23.5,48.6h-6.1c-1.7,0-3.1-1.4-3.1-3.1
		s1.4-3.1,3.1-3.1h6.1c1.7,0,3.1,1.4,3.1,3.1S25.1,48.6,23.5,48.6z M23.5,36.4h-6.1c-1.7,0-3.1-1.4-3.1-3.1s1.4-3.1,3.1-3.1h6.1
		c1.7,0,3.1,1.4,3.1,3.1C26.5,35,25.1,36.4,23.5,36.4z M23.5,24.1h-6.1c-1.7,0-3.1-1.4-3.1-3.1s1.4-3.1,3.1-3.1h6.1
		c1.7,0,3.1,1.4,3.1,3.1S25.1,24.1,23.5,24.1z M43.9,60.9h-6.1c-1.7,0-3.1-1.4-3.1-3.1s1.4-3.1,3.1-3.1h6.1c1.7,0,3.1,1.4,3.1,3.1
		S45.6,60.9,43.9,60.9z M43.9,48.6h-6.1c-1.7,0-3.1-1.4-3.1-3.1s1.4-3.1,3.1-3.1h6.1c1.7,0,3.1,1.4,3.1,3.1S45.6,48.6,43.9,48.6z
		 M43.9,36.4h-6.1c-1.7,0-3.1-1.4-3.1-3.1s1.4-3.1,3.1-3.1h6.1c1.7,0,3.1,1.4,3.1,3.1C46.9,35,45.6,36.4,43.9,36.4z M43.9,24.1h-6.1
		c-1.7,0-3.1-1.4-3.1-3.1s1.4-3.1,3.1-3.1h6.1c1.7,0,3.1,1.4,3.1,3.1S45.6,24.1,43.9,24.1z"/>
	<path class="st0" d="M93.4,44.9l-29.1-6.1v59.8h27.6c3.9,0,7.1-3.2,7.1-7.1V51.9C99,48.5,96.7,45.6,93.4,44.9z M83.7,86.4h-6.1
		c-1.7,0-3.1-1.4-3.1-3.1s1.4-3.1,3.1-3.1h6.1c1.7,0,3.1,1.4,3.1,3.1S85.4,86.4,83.7,86.4z M83.7,74.1h-6.1c-1.7,0-3.1-1.4-3.1-3.1
		s1.4-3.1,3.1-3.1h6.1c1.7,0,3.1,1.4,3.1,3.1S85.4,74.1,83.7,74.1z M83.7,61.9h-6.1c-1.7,0-3.1-1.4-3.1-3.1c0-1.7,1.4-3.1,3.1-3.1
		h6.1c1.7,0,3.1,1.4,3.1,3.1C86.8,60.5,85.4,61.9,83.7,61.9z"/>
</g>
</svg>
