<?xml version="1.0" encoding="utf-8"?>
<!-- Generator: Adobe Illustrator 25.2.1, SVG Export Plug-In . SVG Version: 6.00 Build 0)  -->
<svg version="1.1" id="Capa_1" xmlns="http://www.w3.org/2000/svg" xmlns:xlink="http://www.w3.org/1999/xlink" x="0px" y="0px"
	 viewBox="0 0 100 100" style="enable-background:new 0 0 100 100;" xml:space="preserve">
<style type="text/css">
	.st0{fill:#F5C92E;}
</style>
<g>
	<path class="st0" d="M8.2,32.7v0.1c2.2,0.4,4.4,1.1,5.7,1.5C12.7,33.8,10.5,33.1,8.2,32.7z M17.1,53v7.2h2V53H17.1z M19.2,29.8
		l-2.6,11.4c-0.3,0.1-0.5,0.3-0.8,0.4l0,0c0.3-0.2,0.6-0.3,0.9-0.5L19.2,29.8L19.2,29.8z M19.5,39.2L19.5,39.2c0.1,0,0.2,0,0.3,0
		C19.8,39.2,19.7,39.2,19.5,39.2z M17.5,79.6v-8.3c-3.9-1.5-6.7-4.8-6.7-8.6V49.4c0-3,1.7-5.6,4.2-7.3l-6.9-0.4l6.8,0.4
		c-2.6,1.7-4.2,4.3-4.2,7.3v13.3c0,3.3,2.1,6.2,5.3,7.9v9c0,3,3.7,5.5,8.4,5.5c0.3,0,0.5,0,0.8,0C20.9,84.8,17.5,82.5,17.5,79.6z
		 M35.3,53.2v3.1h2v-3.1H35.3z M35.3,57.1v3.1h2v-3.1H35.3z M56,39.2c-0.1,0.3-0.2,0.7-0.2,1h0.8c0-0.4,0.1-0.7,0.2-1H56z
		 M57.4,41.1h-3.3v-0.8h0.8v-1h-1.7v3.5h4.2c0.5,0,0.8-0.4,0.8-0.8S57.9,41.1,57.4,41.1z M61.9,42.7l-3.5-3.5h-0.6
		c-0.1,0.3-0.2,0.7-0.3,1c0.9,0,1.6,0.8,1.6,1.7c0,0.3-0.1,0.6-0.2,0.8H61.9z M63.5,41.1l-1.9-1.9h-2.2l3.5,3.5h0.5
		c-0.1-0.2-0.2-0.5-0.2-0.8C63.3,41.6,63.4,41.3,63.5,41.1z M64.7,39.2h-1.8l1.3,1.3c0.2-0.1,0.5-0.2,0.8-0.2
		C64.9,39.9,64.8,39.5,64.7,39.2z M66.4,39.2h-0.9c0.1,0.3,0.2,0.7,0.2,1h0.8C66.6,39.9,66.5,39.5,66.4,39.2z M65.8,53v7.2h2V53
		H65.8z M67.5,39.2v1h0.8v0.8H65c-0.5,0-0.8,0.4-0.8,0.8s0.4,0.8,0.8,0.8h4.2v-3.5H67.5z M67.3,79.6v-7.4h-1.5v7.4
		c0,3,3.7,5.5,8.4,5.5c0.3,0,0.5,0,0.8,0C70.6,84.8,67.3,82.5,67.3,79.6z M85,34.7l-0.8,6.9c0,0,0.1,0,0.1,0.1l0.8-7
		c0,0,0.2-0.1,0.5-0.2C85.2,34.6,85,34.7,85,34.7z M33.2,14.9c-2.5,0-4.7,0.7-6.5,1.8L33.2,14.9z"/>
	<path class="st0" d="M98.8,34.7c-0.3-2.4-3.6-2.4-6.9-1.9c-2.2,0.4-4.4,1.1-5.7,1.5c-0.1,0-0.2,0.1-0.2,0.1c0,0-0.1,0-0.1,0
		c-0.1,0-0.1,0-0.1,0.1c-0.3,0.1-0.5,0.2-0.5,0.2l-0.8,7c0,0-0.1,0-0.1-0.1l0,0c-0.3-0.2-0.6-0.3-0.9-0.5l-2.6-11.3L80,26.7
		c-0.8-4.4-3.1-8-6.7-10c-1.9-1.1-4.1-1.7-6.5-1.8H33.2c-2.5,0-4.7,0.7-6.5,1.8c-3.5,2-5.9,5.7-6.7,10l-0.8,3.3l-2.6,11.3
		c-0.3,0.1-0.6,0.3-0.9,0.5l0,0c0,0-0.1,0-0.1,0.1l-0.8-7c0,0-0.2-0.1-0.5-0.2c0,0-0.1,0-0.1-0.1c0,0-0.1,0-0.1,0
		c-0.1,0-0.2-0.1-0.2-0.1c-1.3-0.4-3.5-1.1-5.7-1.5c-3.3-0.6-6.7-0.6-6.9,1.9c-0.6,4.9,0,6.7,0,6.7l7,0.4l6.9,0.4
		c-2.6,1.7-4.2,4.3-4.2,7.3v13.3c0,3.8,2.8,7.1,6.7,8.6v8.3c0,2.9,3.3,5.2,7.6,5.5c4.3-0.3,7.6-2.6,7.6-5.5v-7.4h34.5v7.4
		c0,2.9,3.3,5.2,7.6,5.5c4.3-0.3,7.6-2.6,7.6-5.5v-8.3c3.9-1.5,6.7-4.8,6.7-8.6V49.4c0-3-1.7-5.6-4.2-7.3l6.9-0.4l7-0.4
		C98.8,41.4,99.3,39.6,98.8,34.7z M34.2,60.2H17.1V53h17.1V60.2z M64.7,60.2H35.3v-3.1h29.4V60.2z M64.7,56.3H35.3v-3.1h29.4V56.3z
		 M65,42.7c-0.5,0-0.8-0.4-0.8-0.8s0.4-0.8,0.8-0.8h3.3v-0.8h-0.8v-1h-1c0.1,0.3,0.2,0.7,0.2,1h-0.8c0-0.4-0.1-0.7-0.2-1h-0.9
		c0.1,0.3,0.2,0.7,0.3,1c-0.3,0-0.6,0.1-0.8,0.2l-1.3-1.3h-1.2l1.9,1.9c-0.1,0.3-0.2,0.5-0.2,0.8c0,0.3,0.1,0.6,0.2,0.8H63l-3.5-3.5
		h-1.2l3.5,3.5h-3c0.1-0.2,0.2-0.5,0.2-0.8c0-0.9-0.7-1.7-1.6-1.7c0-0.4,0.1-0.7,0.3-1h-0.9c-0.1,0.3-0.2,0.7-0.2,1h-0.8
		c0-0.4,0.1-0.7,0.2-1h-1v1h-0.8v0.8h3.3c0.5,0,0.8,0.4,0.8,0.8s-0.4,0.8-0.8,0.8h-4.2v-3.5H20.1c-0.1,0-0.1,0-0.2,0
		c-0.1,0-0.2,0-0.3,0v0l3.6-14.4c1.1-4.7,5.2-7.6,9.6-7.6h34.4c4.4,0,8.5,2.9,9.6,7.6l3.6,14.4v0c-0.1,0-0.2,0-0.3,0
		c-0.1,0-0.2,0-0.3,0H69.1v3.5H65z M82.9,60.2H65.8V53h17.1V60.2z"/>
	<g>
		<path class="st0" d="M59.1,31.3v0.4c0.2,0.3,0.9,1,2.1,1c1.2,0,1.9-0.7,2.1-1v-0.4c-0.6,0.4-1.3,0.6-2.1,0.6S59.7,31.7,59.1,31.3z
			"/>
		<path class="st0" d="M57,27.6v-2.4c-0.5,0.2-0.8,0.6-0.8,1.2C56.2,27,56.5,27.5,57,27.6z"/>
		<path class="st0" d="M57.8,35.4l-7.1-7.1v1.5c0,0.2,0,0.4-0.1,0.6l6,6C57,36,57.4,35.7,57.8,35.4z"/>
		<path class="st0" d="M66.6,40.2h-0.8c0-0.4-0.1-0.7-0.2-1c-0.6-1.8-2.3-3.1-4.4-3.1c-2,0-3.8,1.3-4.4,3.1c-0.1,0.3-0.2,0.7-0.2,1
			h-0.8c0-0.4,0.1-0.7,0.2-1c0.6-2.3,2.7-4,5.2-4c2.5,0,4.6,1.7,5.2,4C66.5,39.5,66.6,39.9,66.6,40.2z"/>
		<path class="st0" d="M57,23.5h0.8v0.4h2.3c0.9,0,1.8-0.3,2.5-0.8l0.3-0.2l0.2,0.2c0.4,0.4,0.9,0.6,1.4,0.7v-0.4h0.8v0.9
			c0.3,0.1,0.6,0.2,0.8,0.4v-1.9c0-1-0.6-1.9-1.4-2.3l-0.1,0L64,19.9c-0.9-0.9-2-1.3-3.3-1.3c-2.5,0-4.6,2.1-4.6,4.6v1.7
			c0.2-0.2,0.5-0.3,0.8-0.4V23.5z"/>
		<path class="st0" d="M64.5,27.7v-2.9c-0.6-0.1-1.2-0.3-1.7-0.7c-0.8,0.5-1.8,0.7-2.7,0.7h-2.3v2.9c0,1.8,1.5,3.3,3.3,3.3
			S64.5,29.5,64.5,27.7z M59.1,26.4c-0.2,0-0.4-0.2-0.4-0.4c0-0.2,0.2-0.4,0.4-0.4s0.4,0.2,0.4,0.4C59.5,26.3,59.3,26.4,59.1,26.4z
			 M61.2,29.8c-0.9,0-1.7-0.8-1.7-1.7h0.8c0,0.5,0.4,0.8,0.8,0.8s0.8-0.4,0.8-0.8h0.8C62.9,29,62.1,29.8,61.2,29.8z M62.9,26
			c0-0.2,0.2-0.4,0.4-0.4s0.4,0.2,0.4,0.4c0,0.2-0.2,0.4-0.4,0.4S62.9,26.3,62.9,26z"/>
		<path class="st0" d="M65.4,27.6c0.5-0.2,0.8-0.6,0.8-1.2c0-0.5-0.4-1-0.8-1.2V27.6z"/>
		<path class="st0" d="M63.3,41.9c0,0.3,0.1,0.6,0.2,0.8H63l-4.6-4.6c0.4-0.4,0.8-0.7,1.3-0.9l2,2l1.9,1.9
			C63.4,41.3,63.3,41.6,63.3,41.9z"/>
		<path class="st0" d="M69.1,38.6v4.2H65c-0.5,0-0.8-0.4-0.8-0.8s0.4-0.8,0.8-0.8h3.3v-0.8h-0.8v-1.7H69.1z"/>
		<path class="st0" d="M55.8,37.5c0.1-0.2,0.2-0.4,0.4-0.5l-0.4-0.4V37.5z"/>
		<path class="st0" d="M64.9,40.2c-0.3,0-0.6,0.1-0.8,0.2l-3.5-3.5c0.2,0,0.4,0,0.6,0c1.5,0,2.9,0.9,3.5,2.3
			C64.8,39.5,64.9,39.9,64.9,40.2z"/>
		<path class="st0" d="M68.3,33.2l-4.4-0.8c-0.4,0.4-1.2,1.2-2.7,1.2c-1.4,0-2.3-0.8-2.7-1.2l-2.1,0.4l2.2,2.2
			c0.8-0.4,1.7-0.6,2.6-0.6c2.3,0,4.4,1.3,5.4,3.2v-2.7h0.8v2.9H70v-2.5C70,34.2,69.3,33.4,68.3,33.2z"/>
		<path class="st0" d="M54.9,35.8l-2-2c-0.3,0.4-0.5,0.9-0.5,1.4v2.5h2.5V35.8z"/>
		<path class="st0" d="M58.3,41.9c0,0.5-0.4,0.8-0.8,0.8h-4.2v-4.2h1.7v1.7h-0.8v0.8h3.3C57.9,41.1,58.3,41.5,58.3,41.9z"/>
		<path class="st0" d="M58.9,42.7c0.1-0.2,0.2-0.5,0.2-0.8c0-0.9-0.7-1.7-1.6-1.7c0-0.4,0.1-0.7,0.3-1c0.1-0.1,0.1-0.3,0.2-0.4
			l0.4,0.4l3.5,3.5H58.9z"/>
	</g>
</g>
</svg>
