<svg xmlns="http://www.w3.org/2000/svg" width="49.066" height="43.614" viewBox="0 0 49.066 43.614">
  <path id="Icon_material-directions-car" data-name="Icon material-directions-car" d="M47.9,10.253A4.073,4.073,0,0,0,44.025,7.5H14.041a4.1,4.1,0,0,0-3.871,2.753L4.5,26.581V48.388a2.734,2.734,0,0,0,2.726,2.726H9.952a2.734,2.734,0,0,0,2.726-2.726V45.662H45.388v2.726a2.734,2.734,0,0,0,2.726,2.726H50.84a2.734,2.734,0,0,0,2.726-2.726V26.581ZM14.041,37.485A4.089,4.089,0,1,1,18.129,33.4,4.083,4.083,0,0,1,14.041,37.485Zm29.985,0A4.089,4.089,0,1,1,48.114,33.4,4.083,4.083,0,0,1,44.025,37.485ZM9.952,23.855l4.089-12.267H44.025l4.089,12.267Z" transform="translate(-4.5 -7.5)" fill="#fff"/>
</svg>
