<svg xmlns="http://www.w3.org/2000/svg" width="82.14" height="49.284" viewBox="0 0 82.14 49.284">
  <path id="Icon_awesome-money-bill-alt" data-name="Icon awesome-money-bill-alt" d="M45.177,33.249H43.123V21.955A1.026,1.026,0,0,0,42.1,20.928H40.354a3.076,3.076,0,0,0-1.708.517l-1.967,1.312a1.026,1.026,0,0,0-.285,1.423l1.14,1.708a1.026,1.026,0,0,0,1.423.285l.06-.04v7.115H36.963a1.026,1.026,0,0,0-1.027,1.027v2.053a1.026,1.026,0,0,0,1.027,1.027h8.214A1.026,1.026,0,0,0,46.2,36.329V34.276A1.026,1.026,0,0,0,45.177,33.249ZM78.033,4.5H4.107A4.107,4.107,0,0,0,0,8.607v41.07a4.107,4.107,0,0,0,4.107,4.107H78.033a4.107,4.107,0,0,0,4.107-4.107V8.607A4.107,4.107,0,0,0,78.033,4.5ZM6.16,47.623V39.409a8.213,8.213,0,0,1,8.214,8.214Zm0-28.749V10.66h8.214A8.213,8.213,0,0,1,6.16,18.874ZM41.07,43.516c-6.8,0-12.321-6.436-12.321-14.374S34.265,14.767,41.07,14.767,53.391,21.2,53.391,29.142,47.872,43.516,41.07,43.516Zm34.909,4.107H67.765a8.213,8.213,0,0,1,8.214-8.214Zm0-28.749a8.213,8.213,0,0,1-8.214-8.214h8.214Z" transform="translate(0 -4.5)" fill="#f6c92e"/>
</svg>
