<svg xmlns="http://www.w3.org/2000/svg" width="52.901" height="37.03" viewBox="0 0 52.901 37.03">
  <path id="Icon_awesome-money-bill-wave-alt" data-name="Icon awesome-money-bill-wave-alt" d="M51.343,4.106A24.477,24.477,0,0,0,41.721,2.25C31.54,2.249,21.36,7.4,11.179,7.4A25.079,25.079,0,0,1,3.521,6.269a2.826,2.826,0,0,0-.855-.134A2.63,2.63,0,0,0,0,8.764V34.988a2.629,2.629,0,0,0,1.557,2.435,24.464,24.464,0,0,0,9.622,1.857c10.181,0,20.362-5.154,30.543-5.154a25.079,25.079,0,0,1,7.658,1.134,2.826,2.826,0,0,0,.856.134A2.63,2.63,0,0,0,52.9,32.765V6.542a2.632,2.632,0,0,0-1.558-2.436ZM26.45,28.7c-3.653,0-6.613-3.553-6.613-7.935S22.8,12.83,26.45,12.83s6.613,3.553,6.613,7.935S30.1,28.7,26.45,28.7Z" transform="translate(0 -2.25)" fill="#fff"/>
</svg>
