<?xml version="1.0" encoding="utf-8"?>
<!-- Generator: Adobe Illustrator 25.2.1, SVG Export Plug-In . SVG Version: 6.00 Build 0)  -->
<svg version="1.1" id="Capa_1" xmlns="http://www.w3.org/2000/svg" xmlns:xlink="http://www.w3.org/1999/xlink" x="0px" y="0px"
	 viewBox="0 0 100 100" style="enable-background:new 0 0 100 100;" xml:space="preserve">
<style type="text/css">
	.st0{fill:#F5C92E;}
</style>
<g>
	<g id="money_5">
		<g>
			<path class="st0" d="M99,67.7c0-5.2-4.3-9.5-9.5-9.5c-0.2,0-0.4,0-0.7,0.1c0.9-2.2,1.5-4.7,1.5-7.4c0-6.3-8.1-20.8-13.4-25.6
				c-2.9,0.6-6,1-9.2,1c-3.3,0-6.4-0.4-9.4-1C53.2,29.4,44,44.3,44,50.9c0,1.1,0.1,2.1,0.3,3.1c-1.6-0.1-3.2-0.2-4.8-0.2
				c-4.2,0-8.3,0.5-12.1,1.3c-0.1-1.4-0.2-2.3-0.2-2.3H2.1c0,0-1.1,9.2-1.1,20.5s1.1,20.5,1.1,20.5h25.1c0,0,0.2-2.4,0.5-5.8
				c3.7-0.6,7.6,0.4,12,3.1c5.6,3.7,12.5,5.8,20,5.8c7.6,0,14.1-2.2,19.5-6l0,0c0.1,0,0.1-0.1,0.2-0.2c1.5-1.1,3-2.3,4.3-3.6
				c1.1-1.1,2.5-2.5,4.6-4.6c7.2-7.1,8.1-8.5,8.1-8.5s0,0,0,0C98,72.5,99,70.2,99,67.7z M61.7,43c0.2-0.6,0.6-1.1,1-1.5
				c0.4-0.4,0.9-0.8,1.5-1.1c0.6-0.3,1.2-0.5,1.9-0.6v-1.6h3.5v1.9c0.5,0.1,1,0.3,1.4,0.6v-0.7h3.5v5.2h-3.5
				c-0.3-0.3-0.6-0.6-0.8-0.8c-0.3-0.2-0.6-0.4-0.8-0.6c-0.3-0.2-0.6-0.3-1-0.4c-0.4-0.1-0.8-0.1-1.3-0.1c-0.7,0-1.2,0.2-1.6,0.5
				c-0.4,0.3-0.6,0.7-0.6,1.1c0,1.1,1.2,1.8,3.5,2.1c1.4,0.2,2.6,0.6,3.4,1.1c0.8,0.5,1.5,1,2,1.6c0.4,0.6,0.7,1.1,0.9,1.7
				c0.1,0.6,0.2,1,0.2,1.4c0,0.7-0.1,1.3-0.4,1.8c-0.3,0.6-0.6,1.1-1.1,1.5c-0.5,0.4-1,0.8-1.6,1c-0.6,0.3-1.3,0.4-2.1,0.5v1.6h-3.5
				v-2c-0.2-0.1-0.4-0.2-0.5-0.2c-0.2-0.1-0.3-0.2-0.5-0.2v0.8h-3.5v-5.2H65c0.3,0.3,0.6,0.6,0.9,0.9c0.3,0.2,0.6,0.4,0.9,0.6
				c0.3,0.2,0.6,0.3,1,0.4c0.4,0.1,0.8,0.1,1.3,0.1c0.6,0,1.1-0.1,1.6-0.4c0.4-0.3,0.6-0.6,0.6-1c0-0.3-0.1-0.6-0.3-0.9
				c-0.2-0.3-0.5-0.5-0.8-0.7c-0.3-0.2-0.7-0.3-1.1-0.4c-0.4-0.1-0.8-0.2-1.2-0.3c-1.4-0.2-2.5-0.6-3.4-1c-0.8-0.4-1.5-0.9-2-1.5
				c-0.5-0.5-0.8-1.1-0.9-1.6c-0.1-0.6-0.2-1-0.2-1.5C61.4,44.2,61.5,43.6,61.7,43z M93.2,71.4c-1.3,1.3-6.6,6.8-8.1,8.2
				c-3.8,3.7-5.5,5.4-6.3,6.4l0,0c-0.6,0.5-1.2,1-1.8,1.4c-4.9,3.3-10.9,5.2-17.4,5.2c-6.6,0-12.7-2-17.6-5.3h0
				c-4.2-2.6-9.2-4.1-14-3.7c0.2-3.4,0.4-7.1,0.4-10.2c0-4.4-0.3-9.8-0.6-14c3.7-0.8,7.7-1.3,11.8-1.3c12.6,0,23.8,4.2,30.6,10.7
				c0.8,0.9,1.3,2.1,1.3,3.4c0,2.8-2.3,5.1-5.1,5.1c-0.1,0-0.2,0-0.3,0l0,0.1c-2.6-0.1-6.7-1.2-13.6-3.8l-1.6,4.1
				c7.3,2.8,12.1,4,15.5,4.1v0c4.3,0,7.9-2.9,9.1-6.7v0c1.5-2.5,7-7.6,10.1-10.4v0c0,0,0.1-0.1,0.1-0.1c0.6-0.5,1.1-1,1.4-1.3
				c0.7-0.4,1.4-0.6,2.4-0.6c2.8,0,5.1,2.3,5.1,5.1C94.6,69.1,94,70.4,93.2,71.4z"/>
			<path class="st0" d="M59.6,22.1c0,0,4.3,1,8.4,1c4.2,0,6.9-0.6,6.9-0.6c2.4-1.2,7.9-13.8,4.7-18.2C76-0.6,70.1,10.1,67.3,9
				c-2.7-1.1-8.6-6.8-12.5-4.5C51.5,6.5,56.9,20.1,59.6,22.1z"/>
		</g>
	</g>
</g>
</svg>
